PathFileType	4	(X/Y/Z)	C:/Users/opensim2020/Desktop/walking_exp_matlab/subject06_walking14_straight_03.trc	
DataRate	CameraRate	NumFrames	NumMarkers	Units	OrigDataRate	OrigDataStartFrame	OrigNumFrames	
100.00	100.00	4	45	mm	100.00	2208	233	
Frame#	Time	LFHD			RFHD			LBHD			RBHD			C7			T10			CLAV			STRN			RBAK			LSHO			LUPA			LELB			LFRM			LWRA			LWRB			LFIN			RSHO			RUPA			RELB			RFRM			RWRA			RWRB			RFIN			LASI			RASI			LPSI			RPSI			LTHI			LKNE			LTIB			LANK			LHEE			LTOE			RTHI			RKNE			RTIB			RANK			RHEE			RTOE			*39			*40			*41			*42			*43			*44			
		X1	Y1	Z1	X2	Y2	Z2	X3	Y3	Z3	X4	Y4	Z4	X5	Y5	Z5	X6	Y6	Z6	X7	Y7	Z7	X8	Y8	Z8	X9	Y9	Z9	X10	Y10	Z10	X11	Y11	Z11	X12	Y12	Z12	X13	Y13	Z13	X14	Y14	Z14	X15	Y15	Z15	X16	Y16	Z16	X17	Y17	Z17	X18	Y18	Z18	X19	Y19	Z19	X20	Y20	Z20	X21	Y21	Z21	X22	Y22	Z22	X23	Y23	Z23	X24	Y24	Z24	X25	Y25	Z25	X26	Y26	Z26	X27	Y27	Z27	X28	Y28	Z28	X29	Y29	Z29	X30	Y30	Z30	X31	Y31	Z31	X32	Y32	Z32	X33	Y33	Z33	X34	Y34	Z34	X35	Y35	Z35	X36	Y36	Z36	X37	Y37	Z37	X38	Y38	Z38	X39	Y39	Z39	X40	Y40	Z40	X41	Y41	Z41	X42	Y42	Z42	X43	Y43	Z43	X44	Y44	Z44	X45	Y45	Z45	

1	0.000	1326.22729	-927.70819	1655.18848	1457.48645	-921.89038	1647.99048	1332.00330	-1060.42676	1599.10242	1461.10876	-1053.73730	1597.21399	1394.84595	-1058.45898	1446.89893	1423.35742	-1107.34009	1121.68762	1391.80164	-950.57050	1365.74255	1393.99512	-918.37500	1188.99634	1491.42529	-1129.49329	1286.10413	1232.50037	-1015.32745	1395.58020	1169.31909	-1062.98950	1198.65247	1165.08240	-1094.94104	1089.89709	1148.20605	-1103.57532	938.84955	1191.90149	-1067.06628	815.37994	1156.40076	-1127.35144	822.12866	1159.13733	-1104.60364	733.80060	1551.47498	-981.08325	1408.14160	1656.91699	-1013.63470	1219.41748	1670.96716	-1006.97308	1097.06946	1681.00269	-977.62903	980.20319	1631.09827	-906.88312	853.50879	1679.62683	-953.41016	844.44427	1670.51404	-905.55334	775.53442	1305.80347	-931.08783	963.77917	1524.06519	-934.79285	956.09265	1335.32739	-1089.37024	991.04388	1502.57471	-1084.27905	983.04291	1236.30798	-980.74835	656.09692	1256.53467	-968.09119	492.01965	1268.31909	-967.37585	236.16896	1315.35754	-942.09546	67.25928	1362.68005	-979.03943	53.42008	1315.10046	-794.97711	42.04338	1588.49109	-1003.34784	616.91998	1580.82263	-1004.01300	489.31464	1576.69055	-1203.95703	321.58975	1537.94214	-1352.26306	211.79584	1489.45020	-1387.37000	229.61147	1548.58142	-1316.47253	57.17961	1387.59473	-1026.38733	1694.36633															 
2	0.010	1325.02869	-918.88715	1656.08557	1456.30969	-914.06848	1648.89453	1330.53503	-1051.84717	1599.37170	1459.67285	-1045.40576	1597.52161	1393.16833	-1049.58289	1447.35266	1421.17847	-1098.22729	1121.64221	1390.81262	-941.57098	1366.22693	1392.84253	-909.33044	1189.35425	1488.62964	-1121.06677	1285.89709	1230.96362	-1005.20819	1396.04248	1166.61182	-1051.01233	1198.68066	1162.31201	-1081.32251	1089.34973	1145.33459	-1086.94727	938.14911	1187.16418	-1044.60730	816.58777	1153.68347	-1108.50000	820.66559	1156.03223	-1084.13232	733.16864	1550.53418	-973.09344	1408.22522	1655.89209	-1007.41827	1219.52405	1670.02795	-1001.42377	1097.08752	1680.14575	-973.57129	979.95508	1630.95947	-905.08954	852.11371	1679.15649	-951.19519	843.87250	1669.65088	-904.50494	774.09467	1304.67468	-921.75861	963.58453	1523.57043	-925.53735	956.56512	1333.65088	-1080.54578	991.17572	1501.15125	-1075.78760	982.80591	1235.25659	-973.43677	656.45789	1255.66809	-962.51801	492.05978	1267.67480	-964.59338	236.21840	1315.42212	-941.70117	67.37201	1362.68359	-978.81165	53.54915	1315.45508	-794.68909	41.63511	1588.29297	-989.12885	616.84094	1580.73608	-986.21533	489.41794	1576.16968	-1185.22864	323.49609	1536.04102	-1335.63232	216.92015	1486.81726	-1369.39771	235.60406	1548.23816	-1305.42358	60.99451	1386.18420	-1018.27124	1694.78748															 
3	0.020	1323.96838	-910.82739	1656.57874	1455.39502	-906.04224	1649.54114	1329.20520	-1043.31299	1599.62524	1458.32520	-1037.09644	1597.74695	1391.56873	-1040.68176	1447.84045	1419.13000	-1089.24817	1121.66101	1389.87451	-932.67194	1366.55994	1391.82190	-900.38464	1189.64795	1485.74548	-1112.74951	1285.70508	1229.51563	-995.04602	1396.26526	1164.55896	-1038.04736	1198.31177	1159.57971	-1067.34241	1088.61389	1142.19531	-1070.55933	937.42188	1185.54919	-1027.32886	815.80035	1150.59094	-1089.75293	819.76569	1152.83875	-1063.23096	732.57526	1549.72754	-965.20026	1408.20068	1654.76514	-1001.60120	1219.41052	1669.10730	-996.15161	1096.93970	1679.28796	-969.81256	979.47223	1630.12207	-902.95386	850.59698	1678.74487	-949.39099	843.05646	1669.15149	-903.75873	772.49744	1303.78101	-912.44812	963.57727	1522.64966	-917.35565	956.60712	1332.33350	-1071.43213	991.42737	1499.88159	-1067.43115	982.62823	1234.50574	-965.95599	656.92529	1254.80847	-957.32764	492.27985	1266.65710	-962.41962	236.27975	1315.51624	-941.30884	67.34570	1362.62549	-978.75616	53.67890	1315.74170	-794.38940	41.35117	1588.09900	-975.30664	616.93311	1580.73425	-968.87482	489.85995	1575.55066	-1166.65051	325.09564	1533.87378	-1318.90015	221.43054	1484.06311	-1351.93591	239.90912	1548.85364	-1290.08228	65.65793	1384.85303	-1010.15991	1695.15417															 
4	0.030	1322.95129	-902.02710	1657.33142	1454.50305	-897.76300	1650.28906	1327.91846	-1034.64990	1599.78723	1457.05261	-1028.72156	1597.98083	1389.99500	-1031.82178	1448.33618	1417.20630	-1080.39282	1121.81702	1389.00781	-923.98584	1366.89368	1390.84924	-891.79846	1189.91040	1482.90247	-1104.44543	1285.56323	1228.13416	-984.81757	1396.35181	1162.32092	-1025.22266	1197.83594	1156.73071	-1053.27588	1087.73828	1139.27649	-1053.21472	936.51855	1182.88135	-1008.40753	815.61041	1147.85229	-1069.66479	818.18024	1149.55237	-1042.03552	732.06744	1549.05469	-957.22363	1408.08069	1653.46082	-995.93073	1219.21399	1668.47949	-991.74036	1096.77393	1678.40479	-966.41376	978.84967	1630.01392	-901.41046	848.89917	1678.34937	-948.06506	842.10059	1668.86877	-903.54474	770.74402	1303.11267	-903.10236	963.85553	1521.85986	-909.33746	956.76117	1331.35657	-1062.24683	991.74548	1498.86963	-1059.07739	982.47205	1234.13171	-958.67145	657.43109	1254.09631	-952.50885	492.61426	1266.03015	-960.34296	236.51344	1315.54248	-941.12744	67.40777	1362.50647	-978.74518	53.62764	1315.98975	-794.20135	41.10843	1587.83972	-961.93848	617.33032	1580.90137	-951.84088	490.60309	1574.77063	-1148.62048	326.60156	1531.37305	-1301.25610	224.83774	1481.30432	-1334.62488	241.84863	1549.16724	-1270.28589	69.99577	1383.63403	-1001.90747	1695.42346															 
